<?xml version="1.0" encoding="utf-8"?>
<svg xmlns="http://www.w3.org/2000/svg" style="margin: auto; background: none; display: block; shape-rendering: auto;" width="125" height="40" preserveAspectRatio="xMidYMid">
<style type="text/css">
  text {
    text-anchor: middle; font-size: 40px; opacity: 0;
  }
</style>
<g style="transform-origin:62.5px 20px;transform:scale(1)">
<g transform="translate(62.5,20)">
  <g transform="translate(-4,3)"><g class="path" style="transform: scale(0.91); transform-origin: -43.96px -3.1528px; animation: 0.666667s linear -0.0444444s infinite normal forwards running breath-ecb6a9f7-b400-4a28-b665-ecf33852474e;"><path d="M11.40 0.44L11.40 0.44L11.40 0.44Q8.56 0.44 3.20 0L3.20 0L3.68-9.72L3.20-27.60L13.88-27.60L13.88-27.60Q19.28-27.60 22.32-24.36L22.32-24.36L22.32-24.36Q25.36-21.12 25.36-15.36L25.36-15.36L25.36-15.36Q25.36-8.08 21.60-3.82L21.60-3.82L21.60-3.82Q17.84 0.44 11.40 0.44zM12.44-23.28L12.44-23.28L12.44-23.28Q9.80-23.28 8.72-23.24L8.72-23.24L8.32-10.40L8.60-3.92L8.60-3.92Q11.96-3.68 13.12-3.68L13.12-3.68L13.12-3.68Q16.28-3.68 18.10-6.24L18.10-6.24L18.10-6.24Q19.92-8.80 19.92-13.68L19.92-13.68L19.92-13.68Q19.92-18.56 18.14-20.92L18.14-20.92L18.14-20.92Q16.36-23.28 12.44-23.28" fill="#000000" stroke="none" stroke-width="none" transform="translate(-58.239959716796875,10.427197062174471)" style="fill: rgb(0, 0, 0);"></path></g><g class="path" style="transform: scale(0.91); transform-origin: -23.72px 0.247197px; animation: 0.666667s linear -0.0666667s infinite normal forwards running breath-ecb6a9f7-b400-4a28-b665-ecf33852474e;"><path d="M28.44-19.32L28.44-19.32L33.28-20.36L33.28-20.36Q33.64-17.28 33.76-14.52L33.76-14.52L33.76-14.52Q37.40-20.16 40.60-20.16L40.60-20.16L40.16-13.92L40.16-13.92Q37.84-13.92 36.50-13.50L36.50-13.50L36.50-13.50Q35.16-13.08 33.76-11.84L33.76-11.84L33.76-10.40L34.20-1L28.84 0L29.32-9.72L29.32-9.72Q29.16-15.08 28.44-19.32" fill="#000000" stroke="none" stroke-width="none" transform="translate(-58.239959716796875,10.427197062174471)" style="fill: rgb(0, 0, 0);"></path></g><g class="path" style="transform: scale(0.91); transform-origin: -12.46px 0.247197px; animation: 0.666667s linear -0.155556s infinite normal forwards running breath-ecb6a9f7-b400-4a28-b665-ecf33852474e;"><path d="M43.12-19.36L48.48-20.36L48.00-10.40L48.44-1L43.08 0L43.56-9.72L43.12-19.36" fill="#000000" stroke="none" stroke-width="none" transform="translate(-58.239959716796875,10.427197062174471)" style="fill: rgb(0, 0, 0);"></path></g><g class="path" style="transform: scale(0.91); transform-origin: -12.28px -15.9728px; animation: 0.666667s linear -0.0222222s infinite normal forwards running breath-ecb6a9f7-b400-4a28-b665-ecf33852474e;"><path d="M42.84-26.22L42.84-26.22L42.84-26.22Q42.84-27.56 43.88-28.62L43.88-28.62L43.88-28.62Q44.92-29.68 46.28-29.68L46.28-29.68L46.28-29.68Q47.64-29.68 48.36-28.94L48.36-28.94L48.36-28.94Q49.08-28.20 49.08-26.72L49.08-26.72L49.08-26.72Q49.08-25.24 48.06-24.18L48.06-24.18L48.06-24.18Q47.04-23.12 45.70-23.12L45.70-23.12L45.70-23.12Q44.36-23.12 43.60-24L43.60-24L43.60-24Q42.84-24.88 42.84-26.22" fill="#000000" stroke="none" stroke-width="none" transform="translate(-58.239959716796875,10.427197062174471)" style="fill: rgb(0, 0, 0);"></path></g><g class="path" style="transform: scale(0.91); transform-origin: 2.68004px 0.347198px; animation: 0.666667s linear -0.133333s infinite normal forwards running breath-ecb6a9f7-b400-4a28-b665-ecf33852474e;"><path d="M64.48-10.12L64.48-10.12Q64.48-12.88 64-13.80L64-13.80L64-13.80Q63.52-14.72 61.76-14.72L61.76-14.72L61.76-14.72Q60-14.72 57.76-13.32L57.76-13.32L57.76-10.40L58.20-1L52.84 0L53.32-9.72L53.32-9.72Q53.16-15.08 52.44-19.32L52.44-19.32L57.28-20.36L57.28-20.36Q57.56-18.04 57.68-15.84L57.68-15.84L57.68-15.84Q58.28-16.64 59.04-17.42L59.04-17.42L59.04-17.42Q59.80-18.20 61.44-19.18L61.44-19.18L61.44-19.18Q63.08-20.16 64.90-20.16L64.90-20.16L64.90-20.16Q66.72-20.16 67.96-18.74L67.96-18.74L67.96-18.74Q69.20-17.32 69.20-14.88L69.20-14.88L68.96-10.40L69.40-0.80L64 0.20L64.48-10.12" fill="#000000" stroke="none" stroke-width="none" transform="translate(-58.239959716796875,10.427197062174471)" style="fill: rgb(0, 0, 0);"></path></g><g class="path" style="transform: scale(0.91); transform-origin: 24.08px -4.8528px; animation: 0.666667s linear -0.177778s infinite normal forwards running breath-ecb6a9f7-b400-4a28-b665-ecf33852474e;"><path d="M90.84-2.64L86.28 0.40L78.76-10.68L78.76-10.40L79.20-1L73.80 0L74.28-9.72L73.80-29.96L79.28-30.96L78.76-11.64L86.76-20.40L90.52-17.84L83.52-11.28L90.84-2.64" fill="#000000" stroke="none" stroke-width="none" transform="translate(-58.239959716796875,10.427197062174471)" style="fill: rgb(0, 0, 0);"></path></g><g class="path" style="transform: scale(0.91); transform-origin: 40.12px 0.347198px; animation: 0.666667s linear -0.111111s infinite normal forwards running breath-ecb6a9f7-b400-4a28-b665-ecf33852474e;"><path d="M99.12-3.72L99.12-3.72L99.12-3.72Q101.20-3.72 101.20-5.56L101.20-5.56L101.20-5.56Q101.20-6.20 100.30-6.76L100.30-6.76L100.30-6.76Q99.40-7.32 98.10-7.88L98.10-7.88L98.10-7.88Q96.80-8.44 95.50-9.14L95.50-9.14L95.50-9.14Q94.20-9.84 93.30-11.08L93.30-11.08L93.30-11.08Q92.40-12.32 92.40-13.92L92.40-13.92L92.40-13.92Q92.40-16.60 94.76-18.60L94.76-18.60L94.76-18.60Q97.12-20.60 100.20-20.60L100.20-20.60L100.20-20.60Q101.64-20.60 103.02-20.26L103.02-20.26L103.02-20.26Q104.40-19.92 105.68-19.20L105.68-19.20L103-14.32L103-14.32Q102.72-14.56 102.28-14.92L102.28-14.92L102.28-14.92Q101.84-15.28 100.62-15.86L100.62-15.86L100.62-15.86Q99.40-16.44 98.46-16.44L98.46-16.44L98.46-16.44Q97.52-16.44 97.02-16.02L97.02-16.02L97.02-16.02Q96.52-15.60 96.52-14.86L96.52-14.86L96.52-14.86Q96.52-14.12 97.90-13.38L97.90-13.38L97.90-13.38Q99.28-12.64 100.92-12.02L100.92-12.02L100.92-12.02Q102.56-11.40 103.94-9.98L103.94-9.98L103.94-9.98Q105.32-8.56 105.32-6.60L105.32-6.60L105.32-6.60Q105.32-3.80 103.02-1.68L103.02-1.68L103.02-1.68Q100.72 0.44 97.72 0.44L97.72 0.44L97.72 0.44Q95.80 0.44 94.14-0.40L94.14-0.40L94.14-0.40Q92.48-1.24 91.76-2.08L91.76-2.08L91.04-2.92L94.20-6.60L94.20-6.60Q94.44-6.28 94.88-5.80L94.88-5.80L94.88-5.80Q95.32-5.32 96.62-4.52L96.62-4.52L96.62-4.52Q97.92-3.72 99.12-3.72" fill="#000000" stroke="none" stroke-width="none" transform="translate(-58.239959716796875,10.427197062174471)" style="fill: rgb(0, 0, 0);"></path></g><g class="path" style="transform: scale(0.91); transform-origin: 58.54px 7.5872px; animation: 0.666667s linear 0s infinite normal forwards running breath-ecb6a9f7-b400-4a28-b665-ecf33852474e;"><path d="M113.88-2.68L113.88-2.68L113.88-2.68Q113.88-3.96 114.82-4.94L114.82-4.94L114.82-4.94Q115.76-5.92 117.08-5.92L117.08-5.92L117.08-5.92Q119.68-5.92 119.68-3.28L119.68-3.28L119.68-3.28Q119.68-1.76 118.74-0.76L118.74-0.76L118.74-0.76Q117.80 0.24 116.54 0.24L116.54 0.24L116.54 0.24Q115.28 0.24 114.58-0.58L114.58-0.58L114.58-0.58Q113.88-1.40 113.88-2.68" fill="#000000" stroke="none" stroke-width="none" transform="translate(-58.239959716796875,10.427197062174471)" style="fill: rgb(0, 0, 0);"></path></g><g class="path" style="transform: scale(0.91); transform-origin: 58.54px -2.9328px; animation: 0.666667s linear -0.0888889s infinite normal forwards running breath-ecb6a9f7-b400-4a28-b665-ecf33852474e;"><path d="M113.88-13.20L113.88-13.20L113.88-13.20Q113.88-14.48 114.82-15.46L114.82-15.46L114.82-15.46Q115.76-16.44 117.08-16.44L117.08-16.44L117.08-16.44Q119.68-16.44 119.68-13.80L119.68-13.80L119.68-13.80Q119.68-12.28 118.74-11.28L118.74-11.28L118.74-11.28Q117.80-10.28 116.54-10.28L116.54-10.28L116.54-10.28Q115.28-10.28 114.58-11.10L114.58-11.10L114.58-11.10Q113.88-11.92 113.88-13.20" fill="#000000" stroke="none" stroke-width="none" transform="translate(-58.239959716796875,10.427197062174471)" style="fill: rgb(0, 0, 0);"></path></g></g>
</g>
</g>
<style id="breath-ecb6a9f7-b400-4a28-b665-ecf33852474e" data-anikit="">@keyframes breath-ecb6a9f7-b400-4a28-b665-ecf33852474e
{
  0% {
    animation-timing-function: cubic-bezier(0.9647,0.2413,-0.0705,0.7911);
    transform: scale(0.9099999999999999);
  }
  51% {
    animation-timing-function: cubic-bezier(0.9226,0.2631,-0.0308,0.7628);
    transform: scale(1.02994);
  }
  100% {
    transform: scale(0.9099999999999999);
  }
}</style></svg>