<?xml version="1.0" encoding="utf-8"?>
<svg xmlns="http://www.w3.org/2000/svg" style="margin: auto; display: block; shape-rendering: auto; background: none;" width="125" height="40" preserveAspectRatio="xMidYMid">
<style type="text/css">
  text {
    text-anchor: middle; font-size: 40px; opacity: 0;
  }
</style>
<g style="transform-origin:62.5px 20px;transform:scale(1)">
<g transform="translate(62.5,20)">
  <g transform="translate(-4,3)"><g class="path" style="transform: scale(0.91); transform-origin: -40.58px -2.48469px; animation: 0.666667s linear 0s infinite normal forwards running breath-ecb6a9f7-b400-4a28-b665-ecf33852474e;"><path d="M17.68-27.60L17.24-23.32L8.72-23.32L8.48-15.96L16.12-15.96L15.68-11.72L8.36-11.72L8.32-10.40L8.80 0L3.20 0L3.68-9.72L3.20-27.60L17.68-27.60" fill="#303030" stroke="none" stroke-width="none" transform="translate(-51.019989013671875,11.315311104910723)" style="fill: rgb(48, 48, 48);"></path></g><g class="path" style="transform: scale(0.91); transform-origin: -23.7px 1.23531px; animation: 0.666667s linear -0.142857s infinite normal forwards running breath-ecb6a9f7-b400-4a28-b665-ecf33852474e;"><path d="M18.80-8.36L18.80-8.36Q18.80-13.48 21.56-17.04L21.56-17.04L21.56-17.04Q24.32-20.60 28.02-20.60L28.02-20.60L28.02-20.60Q31.72-20.60 33.78-18.20L33.78-18.20L33.78-18.20Q35.84-15.80 35.84-11.84L35.84-11.84L35.84-11.84Q35.84-6.56 33.18-3.06L33.18-3.06L33.18-3.06Q30.52 0.44 26.48 0.44L26.48 0.44L26.48 0.44Q23.16 0.44 20.98-2.06L20.98-2.06L20.98-2.06Q18.80-4.56 18.80-8.36L18.80-8.36zM31.36-9.76L31.36-9.76L31.36-9.76Q31.36-15.56 27.40-15.56L27.40-15.56L27.40-15.56Q23.28-15.56 23.28-10.12L23.28-10.12L23.28-10.12Q23.28-7.28 24.44-5.68L24.44-5.68L24.44-5.68Q25.60-4.08 27.50-4.08L27.50-4.08L27.50-4.08Q29.40-4.08 30.38-5.54L30.38-5.54L30.38-5.54Q31.36-7 31.36-9.76" fill="#303030" stroke="none" stroke-width="none" transform="translate(-51.019989013671875,11.315311104910723)" style="fill: rgb(48, 48, 48);"></path></g><g class="path" style="transform: scale(0.91); transform-origin: -4.41999px 1.23531px; animation: 0.666667s linear -0.114286s infinite normal forwards running breath-ecb6a9f7-b400-4a28-b665-ecf33852474e;"><path d="M38.08-8.36L38.08-8.36Q38.08-13.48 40.84-17.04L40.84-17.04L40.84-17.04Q43.60-20.60 47.30-20.60L47.30-20.60L47.30-20.60Q51-20.60 53.06-18.20L53.06-18.20L53.06-18.20Q55.12-15.80 55.12-11.84L55.12-11.84L55.12-11.84Q55.12-6.56 52.46-3.06L52.46-3.06L52.46-3.06Q49.80 0.44 45.76 0.44L45.76 0.44L45.76 0.44Q42.44 0.44 40.26-2.06L40.26-2.06L40.26-2.06Q38.08-4.56 38.08-8.36L38.08-8.36zM50.64-9.76L50.64-9.76L50.64-9.76Q50.64-15.56 46.68-15.56L46.68-15.56L46.68-15.56Q42.56-15.56 42.56-10.12L42.56-10.12L42.56-10.12Q42.56-7.28 43.72-5.68L43.72-5.68L43.72-5.68Q44.88-4.08 46.78-4.08L46.78-4.08L46.78-4.08Q48.68-4.08 49.66-5.54L49.66-5.54L49.66-5.54Q50.64-7 50.64-9.76" fill="#303030" stroke="none" stroke-width="none" transform="translate(-51.019989013671875,11.315311104910723)" style="fill: rgb(48, 48, 48);"></path></g><g class="path" style="transform: scale(0.91); transform-origin: 14.98px -3.94469px; animation: 0.666667s linear -0.171429s infinite normal forwards running breath-ecb6a9f7-b400-4a28-b665-ecf33852474e;"><path d="M69.12-3.92L69.12-3.92L69.12-3.92Q66 0 63.72 0L63.72 0L63.72 0Q60.88 0 59.06-2.32L59.06-2.32L59.06-2.32Q57.24-4.64 57.24-8.28L57.24-8.28L57.24-8.28Q57.24-13.28 60.02-16.72L60.02-16.72L60.02-16.72Q62.80-20.16 66.84-20.16L66.84-20.16L69.08-19.84L69.08-20.60L68.60-29.96L74.08-30.96L73.56-10.40L73.56-6.88L73.56-6.88Q73.56-4.48 74.76-1.36L74.76-1.36L70.44 0.44L70.44 0.44Q69.28-1.96 69.12-3.92zM61.72-10.36L61.72-10.36L61.72-10.36Q61.72-7.80 62.66-6.36L62.66-6.36L62.66-6.36Q63.60-4.92 65.38-4.92L65.38-4.92L65.38-4.92Q67.16-4.92 69.08-6.36L69.08-6.36L69.08-15L69.08-15Q66.68-15.48 65.52-15.48L65.52-15.48L65.52-15.48Q63.72-15.48 62.72-14.20L62.72-14.20L62.72-14.20Q61.72-12.92 61.72-10.36" fill="#303030" stroke="none" stroke-width="none" transform="translate(-51.019989013671875,11.315311104910723)" style="fill: rgb(48, 48, 48);"></path></g><g class="path" style="transform: scale(0.91); transform-origin: 32.9px 1.23531px; animation: 0.666667s linear -0.0571429s infinite normal forwards running breath-ecb6a9f7-b400-4a28-b665-ecf33852474e;"><path d="M84.68-3.72L84.68-3.72L84.68-3.72Q86.76-3.72 86.76-5.56L86.76-5.56L86.76-5.56Q86.76-6.20 85.86-6.76L85.86-6.76L85.86-6.76Q84.96-7.32 83.66-7.88L83.66-7.88L83.66-7.88Q82.36-8.44 81.06-9.14L81.06-9.14L81.06-9.14Q79.76-9.84 78.86-11.08L78.86-11.08L78.86-11.08Q77.96-12.32 77.96-13.92L77.96-13.92L77.96-13.92Q77.96-16.60 80.32-18.60L80.32-18.60L80.32-18.60Q82.68-20.60 85.76-20.60L85.76-20.60L85.76-20.60Q87.20-20.60 88.58-20.26L88.58-20.26L88.58-20.26Q89.96-19.92 91.24-19.20L91.24-19.20L88.56-14.32L88.56-14.32Q88.28-14.56 87.84-14.92L87.84-14.92L87.84-14.92Q87.40-15.28 86.18-15.86L86.18-15.86L86.18-15.86Q84.96-16.44 84.02-16.44L84.02-16.44L84.02-16.44Q83.08-16.44 82.58-16.02L82.58-16.02L82.58-16.02Q82.08-15.60 82.08-14.86L82.08-14.86L82.08-14.86Q82.08-14.12 83.46-13.38L83.46-13.38L83.46-13.38Q84.84-12.64 86.48-12.02L86.48-12.02L86.48-12.02Q88.12-11.40 89.50-9.98L89.50-9.98L89.50-9.98Q90.88-8.56 90.88-6.60L90.88-6.60L90.88-6.60Q90.88-3.80 88.58-1.68L88.58-1.68L88.58-1.68Q86.28 0.44 83.28 0.44L83.28 0.44L83.28 0.44Q81.36 0.44 79.70-0.40L79.70-0.40L79.70-0.40Q78.04-1.24 77.32-2.08L77.32-2.08L76.60-2.92L79.76-6.60L79.76-6.60Q80.00-6.28 80.44-5.80L80.44-5.80L80.44-5.80Q80.88-5.32 82.18-4.52L82.18-4.52L82.18-4.52Q83.48-3.72 84.68-3.72" fill="#303030" stroke="none" stroke-width="none" transform="translate(-51.019989013671875,11.315311104910723)" style="fill: rgb(48, 48, 48);"></path></g><g class="path" style="transform: scale(0.91); transform-origin: 51.32px 8.47531px; animation: 0.666667s linear -0.0857143s infinite normal forwards running breath-ecb6a9f7-b400-4a28-b665-ecf33852474e;"><path d="M99.44-2.68L99.44-2.68L99.44-2.68Q99.44-3.96 100.38-4.94L100.38-4.94L100.38-4.94Q101.32-5.92 102.64-5.92L102.64-5.92L102.64-5.92Q105.24-5.92 105.24-3.28L105.24-3.28L105.24-3.28Q105.24-1.76 104.30-0.76L104.30-0.76L104.30-0.76Q103.36 0.24 102.10 0.24L102.10 0.24L102.10 0.24Q100.84 0.24 100.14-0.58L100.14-0.58L100.14-0.58Q99.44-1.40 99.44-2.68" fill="#303030" stroke="none" stroke-width="none" transform="translate(-51.019989013671875,11.315311104910723)" style="fill: rgb(48, 48, 48);"></path></g><g class="path" style="transform: scale(0.91); transform-origin: 51.32px -2.04469px; animation: 0.666667s linear -0.0285714s infinite normal forwards running breath-ecb6a9f7-b400-4a28-b665-ecf33852474e;"><path d="M99.44-13.20L99.44-13.20L99.44-13.20Q99.44-14.48 100.38-15.46L100.38-15.46L100.38-15.46Q101.32-16.44 102.64-16.44L102.64-16.44L102.64-16.44Q105.24-16.44 105.24-13.80L105.24-13.80L105.24-13.80Q105.24-12.28 104.30-11.28L104.30-11.28L104.30-11.28Q103.36-10.28 102.10-10.28L102.10-10.28L102.10-10.28Q100.84-10.28 100.14-11.10L100.14-11.10L100.14-11.10Q99.44-11.92 99.44-13.20" fill="#303030" stroke="none" stroke-width="none" transform="translate(-51.019989013671875,11.315311104910723)" style="fill: rgb(48, 48, 48);"></path></g></g>
</g>
</g>
<style id="breath-ecb6a9f7-b400-4a28-b665-ecf33852474e" data-anikit="">@keyframes breath-ecb6a9f7-b400-4a28-b665-ecf33852474e
{
  0% {
    animation-timing-function: cubic-bezier(0.9647,0.2413,-0.0705,0.7911);
    transform: scale(0.9099999999999999);
  }
  51% {
    animation-timing-function: cubic-bezier(0.9226,0.2631,-0.0308,0.7628);
    transform: scale(1.02994);
  }
  100% {
    transform: scale(0.9099999999999999);
  }
}</style></svg>