<?xml version="1.0" encoding="utf-8"?>
<svg xmlns="http://www.w3.org/2000/svg" style="margin: auto; display: block; shape-rendering: auto; background: none;" width="130" height="40" preserveAspectRatio="xMidYMid">
<style type="text/css">
  text {
    text-anchor: middle; font-size: 45px; opacity: 0;
  }
</style>
<g style="transform-origin:65px 20px;transform:scale(1)">
<g transform="translate(65,20)">
  <g transform="translate(-4,3)"><g class="path" style="transform: scale(0.91); transform-origin: -47.725px -3.30094px; animation: 0.666667s linear 0s infinite normal forwards running breath-ecb6a9f7-b400-4a28-b665-ecf33852474e;"><path d="M7.96-26.50L0-25.88L0.49-31.05L21.87-31.05L21.38-25.88L13.54-26.55L13.37-11.70L13.90 0L7.60 0L8.14-10.93L7.96-26.50" fill="#ffd14f" stroke="none" stroke-width="none" transform="translate(-58.65997314453125,12.224065028599338)" style="fill: rgb(255, 209, 79);"></path></g><g class="path" style="transform: scale(0.91); transform-origin: -25.945px 0.879065px; animation: 0.666667s linear -0.142857s infinite normal forwards running breath-ecb6a9f7-b400-4a28-b665-ecf33852474e;"><path d="M23.13-9.40L23.13-9.40Q23.13-15.16 26.23-19.17L26.23-19.17L26.23-19.17Q29.34-23.18 33.50-23.18L33.50-23.18L33.50-23.18Q37.66-23.18 39.98-20.47L39.98-20.47L39.98-20.47Q42.30-17.77 42.30-13.32L42.30-13.32L42.30-13.32Q42.30-7.38 39.31-3.44L39.31-3.44L39.31-3.44Q36.31 0.49 31.77 0.49L31.77 0.49L31.77 0.49Q28.03 0.49 25.58-2.32L25.58-2.32L25.58-2.32Q23.13-5.13 23.13-9.40L23.13-9.40zM37.26-10.98L37.26-10.98L37.26-10.98Q37.26-17.50 32.80-17.50L32.80-17.50L32.80-17.50Q28.17-17.50 28.17-11.38L28.17-11.38L28.17-11.38Q28.17-8.19 29.47-6.39L29.47-6.39L29.47-6.39Q30.78-4.59 32.92-4.59L32.92-4.59L32.92-4.59Q35.05-4.59 36.16-6.23L36.16-6.23L36.16-6.23Q37.26-7.88 37.26-10.98" fill="#ffd14f" stroke="none" stroke-width="none" transform="translate(-58.65997314453125,12.224065028599338)" style="fill: rgb(75, 167, 97);"></path></g><g class="path" style="transform: scale(0.91); transform-origin: -6.81997px -1.70594px; animation: 0.666667s linear -0.114286s infinite normal forwards running breath-ecb6a9f7-b400-4a28-b665-ecf33852474e;"><path d="M45.31-21.78L47.92-21.78L47.92-26.68L54.00-27.86L53.41-21.78L58.86-21.78L58.36-18.09L53.23-18.09L53.01-8.69L53.01-8.69Q53.01-6.57 53.41-5.87L53.41-5.87L53.41-5.87Q53.82-5.17 54.90-5.17L54.90-5.17L54.90-5.17Q55.98-5.17 57.78-5.67L57.78-5.67L58.05-2.48L58.05-2.48Q55.08 0 52.83 0L52.83 0L52.83 0Q50.58 0 49.14-1.64L49.14-1.64L49.14-1.64Q47.70-3.28 47.70-5.94L47.70-5.94L47.97-10.98L47.92-18.09L44.82-18.09L45.31-21.78" fill="#ffd14f" stroke="none" stroke-width="none" transform="translate(-58.65997314453125,12.224065028599338)" style="fill: rgb(40, 130, 251);"></path></g><g class="path" style="transform: scale(0.91); transform-origin: 11.31px 0.704064px; animation: 0.666667s linear -0.171429s infinite normal forwards running breath-ecb6a9f7-b400-4a28-b665-ecf33852474e;"><path d="M66.64 0L66.64 0Q63.99 0 62.30-1.69L62.30-1.69L62.30-1.69Q60.61-3.38 60.61-6.23L60.61-6.23L60.61-6.23Q60.61-9.09 63.22-11.18L63.22-11.18L63.22-11.18Q65.83-13.28 69.57-13.28L69.57-13.28L72.63-13.28L72.63-14.04L72.63-14.04Q72.63-16.25 71.73-17.05L71.73-17.05L71.73-17.05Q70.83-17.86 68.35-17.86L68.35-17.86L68.35-17.86Q67.32-17.86 65.90-17.44L65.90-17.44L65.90-17.44Q64.48-17.01 62.73-16.11L62.73-16.11L61.42-19.66L61.42-19.66Q63.36-21.02 66.13-22.09L66.13-22.09L66.13-22.09Q68.89-23.18 70.69-23.18L70.69-23.18L70.69-23.18Q77.76-23.18 77.76-16.34L77.76-16.34L77.76-7.51L77.76-7.51Q77.76-5.00 79.33-1.89L79.33-1.89L74.56 0.14L74.56 0.14Q73.44-2.02 72.90-3.73L72.90-3.73L72.90-3.73Q70.42 0 66.64 0L66.64 0zM68.53-4.59L68.53-4.59L68.53-4.59Q70.33-4.59 72.63-6.43L72.63-6.43L72.63-9.45L72.63-9.45Q70.24-9.99 68.76-9.99L68.76-9.99L68.76-9.99Q65.92-9.99 65.92-7.47L65.92-7.47L65.92-7.47Q65.92-6.17 66.64-5.38L66.64-5.38L66.64-5.38Q67.36-4.59 68.53-4.59" fill="#ffd14f" stroke="none" stroke-width="none" transform="translate(-58.65997314453125,12.224065028599338)" style="fill: rgb(255, 209, 79);"></path></g><g class="path" style="transform: scale(0.91); transform-origin: 27.675px -5.19094px; animation: 0.666667s linear -0.0571429s infinite normal forwards running breath-ecb6a9f7-b400-4a28-b665-ecf33852474e;"><path d="M83.25-33.70L89.42-34.83L88.83-11.70L89.33-1.13L83.25 0L83.79-10.93L83.25-33.70" fill="#ffd14f" stroke="none" stroke-width="none" transform="translate(-58.65997314453125,12.224065028599338)" style="fill: rgb(75, 167, 97);"></path></g><g class="path" style="transform: scale(0.91); transform-origin: 49.86px -3.28093px; animation: 0.666667s linear -0.0857143s infinite normal forwards running breath-ecb6a9f7-b400-4a28-b665-ecf33852474e;"><path d="M116.96-13.46L99.72-13.46L100.08-17.55L117.32-17.55L116.96-13.46" fill="#ffd14f" stroke="none" stroke-width="none" transform="translate(-58.65997314453125,12.224065028599338)" style="fill: rgb(255, 209, 79);"></path></g><g class="path" style="transform: scale(0.91); transform-origin: 49.86px 4.37406px; animation: 0.666667s linear -0.0285714s infinite normal forwards running breath-ecb6a9f7-b400-4a28-b665-ecf33852474e;"><path d="M116.96-5.80L99.72-5.80L100.08-9.90L117.32-9.90L116.96-5.80" fill="#ffd14f" stroke="none" stroke-width="none" transform="translate(-58.65997314453125,12.224065028599338)" style="fill: rgb(40, 130, 251);"></path></g></g>
</g>
</g>
<style id="breath-ecb6a9f7-b400-4a28-b665-ecf33852474e" data-anikit="">@keyframes breath-ecb6a9f7-b400-4a28-b665-ecf33852474e
{
  0% {
    animation-timing-function: cubic-bezier(0.9647,0.2413,-0.0705,0.7911);
    transform: scale(0.9099999999999999);
  }
  51% {
    animation-timing-function: cubic-bezier(0.9226,0.2631,-0.0308,0.7628);
    transform: scale(1.02994);
  }
  100% {
    transform: scale(0.9099999999999999);
  }
}</style></svg>