<?xml version="1.0" encoding="utf-8"?>
<svg xmlns="http://www.w3.org/2000/svg" style="margin: auto; display: block; shape-rendering: auto; background: none;" width="240" height="40" preserveAspectRatio="xMidYMid">
<style type="text/css">
  text {
    text-anchor: middle; font-size: 45px; opacity: 0;
  }
</style>
<g style="transform-origin: 120px 20px; transform: scale(0.5625);">
<g transform="translate(120,20)">
  <g transform="translate(0,5)"><g class="path" style="transform: scale(0.91); transform-origin: -185.08px -5.40293px; animation: 0.666667s linear -0.0833333s infinite normal forwards running breath-ecb6a9f7-b400-4a28-b665-ecf33852474e;"><path d="M14.16-47.12L0-46L0.88-55.20L38.88-55.20L38-46L24.08-47.20L23.76-20.80L24.72 0L13.52 0L14.48-19.44L14.16-47.12" fill="#c5523f" stroke="none" stroke-width="none" transform="translate(-204.52001953125,22.197074127197265)" style="fill: rgb(73, 146, 85);"></path></g><g class="path" style="transform: scale(0.91); transform-origin: -147.08px 1.71708px; animation: 0.666667s linear -0.15s infinite normal forwards running breath-ecb6a9f7-b400-4a28-b665-ecf33852474e;"><path d="M51.52 0L51.52 0Q46.80 0 43.80-3L43.80-3L43.80-3Q40.80-6 40.80-11.08L40.80-11.08L40.80-11.08Q40.80-16.16 45.44-19.88L45.44-19.88L45.44-19.88Q50.08-23.60 56.72-23.60L56.72-23.60L62.16-23.60L62.16-24.96L62.16-24.96Q62.16-28.88 60.56-30.32L60.56-30.32L60.56-30.32Q58.96-31.76 54.56-31.76L54.56-31.76L54.56-31.76Q52.72-31.76 50.20-31L50.20-31L50.20-31Q47.68-30.24 44.56-28.64L44.56-28.64L42.24-34.96L42.24-34.96Q45.68-37.36 50.60-39.28L50.60-39.28L50.60-39.28Q55.52-41.20 58.72-41.20L58.72-41.20L58.72-41.20Q71.28-41.20 71.28-29.04L71.28-29.04L71.28-13.36L71.28-13.36Q71.28-8.88 74.08-3.36L74.08-3.36L65.60 0.24L65.60 0.24Q63.60-3.60 62.64-6.64L62.64-6.64L62.64-6.64Q58.24 0 51.52 0L51.52 0zM54.88-8.16L54.88-8.16L54.88-8.16Q58.08-8.16 62.16-11.44L62.16-11.44L62.16-16.80L62.16-16.80Q57.92-17.76 55.28-17.76L55.28-17.76L55.28-17.76Q50.24-17.76 50.24-13.28L50.24-13.28L50.24-13.28Q50.24-10.96 51.52-9.56L51.52-9.56L51.52-9.56Q52.80-8.16 54.88-8.16" fill="#c5523f" stroke="none" stroke-width="none" transform="translate(-204.52001953125,22.197074127197265)" style="fill: rgb(73, 146, 85);"></path></g><g class="path" style="transform: scale(0.91); transform-origin: -118.16px 1.83707px; animation: 0.666667s linear -0.133333s infinite normal forwards running breath-ecb6a9f7-b400-4a28-b665-ecf33852474e;"><path d="M81.04-38.72L91.76-40.72L90.80-20.80L91.68-2L80.96 0L81.92-19.44L81.04-38.72" fill="#c5523f" stroke="none" stroke-width="none" transform="translate(-204.52001953125,22.197074127197265)" style="fill: rgb(24, 117, 229);"></path></g><g class="path" style="transform: scale(0.91); transform-origin: -117.8px -30.6029px; animation: 0.666667s linear 0s infinite normal forwards running breath-ecb6a9f7-b400-4a28-b665-ecf33852474e;"><path d="M80.48-52.44L80.48-52.44L80.48-52.44Q80.48-55.12 82.56-57.24L82.56-57.24L82.56-57.24Q84.64-59.36 87.36-59.36L87.36-59.36L87.36-59.36Q90.08-59.36 91.52-57.88L91.52-57.88L91.52-57.88Q92.96-56.40 92.96-53.44L92.96-53.44L92.96-53.44Q92.96-50.48 90.92-48.36L90.92-48.36L90.92-48.36Q88.88-46.24 86.20-46.24L86.20-46.24L86.20-46.24Q83.52-46.24 82-48L82-48L82-48Q80.48-49.76 80.48-52.44" fill="#c5523f" stroke="none" stroke-width="none" transform="translate(-204.52001953125,22.197074127197265)" style="fill: rgb(24, 117, 229);"></path></g><g class="path" style="transform: scale(0.91); transform-origin: -88.96px -5.36292px; animation: 0.666667s linear -0.0333333s infinite normal forwards running breath-ecb6a9f7-b400-4a28-b665-ecf33852474e;"><path d="M96.96-7.28L103.20-15.92L103.20-15.92Q110-9.12 116.80-9.12L116.80-9.12L116.80-9.12Q120.32-9.12 122.44-10.76L122.44-10.76L122.44-10.76Q124.56-12.40 124.56-15L124.56-15L124.56-15Q124.56-17.60 122-19.40L122-19.40L122-19.40Q119.44-21.20 115.80-22.56L115.80-22.56L115.80-22.56Q112.16-23.92 108.56-25.64L108.56-25.64L108.56-25.64Q104.96-27.36 102.40-30.56L102.40-30.56L102.40-30.56Q99.84-33.76 99.84-38.32L99.84-38.32L99.84-38.32Q99.84-45.52 105.84-50.76L105.84-50.76L105.84-50.76Q111.84-56 120.08-56L120.08-56L120.08-56Q123.84-56 127.36-55.20L127.36-55.20L127.36-55.20Q130.88-54.40 134.16-52.88L134.16-52.88L128.72-41.20L128.72-41.20Q126.48-42.96 122.60-44.44L122.60-44.44L122.60-44.44Q118.72-45.92 115.80-45.92L115.80-45.92L115.80-45.92Q112.88-45.92 111.08-44.52L111.08-44.52L111.08-44.52Q109.28-43.12 109.28-40.80L109.28-40.80L109.28-40.80Q109.28-38.48 111.84-36.68L111.84-36.68L111.84-36.68Q114.40-34.88 118.04-33.52L118.04-33.52L118.04-33.52Q121.68-32.16 125.32-30.52L125.32-30.52L125.32-30.52Q128.96-28.88 131.52-25.68L131.52-25.68L131.52-25.68Q134.08-22.48 134.08-17.92L134.08-17.92L134.08-17.92Q134.08-10.40 128.08-4.76L128.08-4.76L128.08-4.76Q122.08 0.88 114.08 0.88L114.08 0.88L114.08 0.88Q108.08 0.88 103.44-2L103.44-2L103.44-2Q99.36-4.48 97.68-6.40L97.68-6.40L96.96-7.28" fill="#c5523f" stroke="none" stroke-width="none" transform="translate(-204.52001953125,22.197074127197265)" style="fill: rgb(242, 183, 54);"></path></g><g class="path" style="transform: scale(0.91); transform-origin: -47.12px -8.56292px; animation: 0.666667s linear -0.116667s infinite normal forwards running breath-ecb6a9f7-b400-4a28-b665-ecf33852474e;"><path d="M164.16-20.24L164.16-20.24Q164.16-25.76 163.20-27.60L163.20-27.60L163.20-27.60Q162.24-29.44 158.72-29.44L158.72-29.44L158.72-29.44Q155.20-29.44 150.72-26.64L150.72-26.64L150.72-20.80L151.60-2L140.80 0L141.76-19.44L140.80-59.92L151.76-61.92L150.72-41.20L150.72-31.84L150.72-31.84Q151.92-33.44 153.44-34.96L153.44-34.96L153.44-34.96Q154.96-36.48 158.16-38.40L158.16-38.40L158.16-38.40Q161.36-40.32 165-40.32L165-40.32L165-40.32Q168.64-40.32 171.12-37.48L171.12-37.48L171.12-37.48Q173.60-34.64 173.60-29.76L173.60-29.76L173.12-20.80L174-1.60L163.20 0.40L164.16-20.24" fill="#c5523f" stroke="none" stroke-width="none" transform="translate(-204.52001953125,22.197074127197265)" style="fill: rgb(197, 82, 63);"></path></g><g class="path" style="transform: scale(0.91); transform-origin: -7.80002px 1.71708px; animation: 0.666667s linear -0.1s infinite normal forwards running breath-ecb6a9f7-b400-4a28-b665-ecf33852474e;"><path d="M190.80 0L190.80 0Q186.08 0 183.08-3L183.08-3L183.08-3Q180.08-6 180.08-11.08L180.08-11.08L180.08-11.08Q180.08-16.16 184.72-19.88L184.72-19.88L184.72-19.88Q189.36-23.60 196-23.60L196-23.60L201.44-23.60L201.44-24.96L201.44-24.96Q201.44-28.88 199.84-30.32L199.84-30.32L199.84-30.32Q198.24-31.76 193.84-31.76L193.84-31.76L193.84-31.76Q192-31.76 189.48-31L189.48-31L189.48-31Q186.96-30.24 183.84-28.64L183.84-28.64L181.52-34.96L181.52-34.96Q184.96-37.36 189.88-39.28L189.88-39.28L189.88-39.28Q194.80-41.20 198-41.20L198-41.20L198-41.20Q210.56-41.20 210.56-29.04L210.56-29.04L210.56-13.36L210.56-13.36Q210.56-8.88 213.36-3.36L213.36-3.36L204.88 0.24L204.88 0.24Q202.88-3.60 201.92-6.64L201.92-6.64L201.92-6.64Q197.52 0 190.80 0L190.80 0zM194.16-8.16L194.16-8.16L194.16-8.16Q197.36-8.16 201.44-11.44L201.44-11.44L201.44-16.80L201.44-16.80Q197.20-17.76 194.56-17.76L194.56-17.76L194.56-17.76Q189.52-17.76 189.52-13.28L189.52-13.28L189.52-13.28Q189.52-10.96 190.80-9.56L190.80-9.56L190.80-9.56Q192.08-8.16 194.16-8.16" fill="#c5523f" stroke="none" stroke-width="none" transform="translate(-204.52001953125,22.197074127197265)" style="fill: rgb(242, 183, 54);"></path></g><g class="path" style="transform: scale(0.91); transform-origin: 31.88px 2.03708px; animation: 0.666667s linear -0.0666667s infinite normal forwards running breath-ecb6a9f7-b400-4a28-b665-ecf33852474e;"><path d="M243.52-20.24L243.52-20.24Q243.52-25.76 242.56-27.60L242.56-27.60L242.56-27.60Q241.60-29.44 238.08-29.44L238.08-29.44L238.08-29.44Q234.56-29.44 230.08-26.64L230.08-26.64L230.08-20.80L230.96-2L220.24 0L221.20-19.44L221.20-19.44Q220.88-30.16 219.44-38.64L219.44-38.64L229.12-40.72L229.12-40.72Q229.68-36.08 229.92-31.68L229.92-31.68L229.92-31.68Q231.12-33.28 232.64-34.84L232.64-34.84L232.64-34.84Q234.16-36.40 237.44-38.36L237.44-38.36L237.44-38.36Q240.72-40.32 244.36-40.32L244.36-40.32L244.36-40.32Q248-40.32 250.48-37.48L250.48-37.48L250.48-37.48Q252.96-34.64 252.96-29.76L252.96-29.76L252.48-20.80L253.36-1.60L242.56 0.40L243.52-20.24" fill="#c5523f" stroke="none" stroke-width="none" transform="translate(-204.52001953125,22.197074127197265)" style="fill: rgb(24, 117, 229);"></path></g><g class="path" style="transform: scale(0.91); transform-origin: 88.44px -5.40293px; animation: 0.666667s linear -0.183333s infinite normal forwards running breath-ecb6a9f7-b400-4a28-b665-ecf33852474e;"><path d="M293.28 0.88L293.28 0.88L293.28 0.88Q284.40 0.88 278.32-6.56L278.32-6.56L278.32-6.56Q272.24-14 272.24-24.80L272.24-24.80L272.24-24.80Q272.24-38 279.56-47.04L279.56-47.04L279.56-47.04Q286.88-56.08 297.52-56.08L297.52-56.08L297.52-56.08Q301.68-56.08 305.24-55.24L305.24-55.24L305.24-55.24Q308.80-54.40 310.32-53.52L310.32-53.52L311.76-52.64L306.32-41.52L306.32-41.52Q304.48-43.12 301.12-44.52L301.12-44.52L301.12-44.52Q297.76-45.92 295.04-45.92L295.04-45.92L295.04-45.92Q289.52-45.92 286.20-41.36L286.20-41.36L286.20-41.36Q282.88-36.80 282.88-28.36L282.88-28.36L282.88-28.36Q282.88-19.92 286.32-14.52L286.32-14.52L286.32-14.52Q289.76-9.12 295.68-9.12L295.68-9.12L295.68-9.12Q299.52-9.12 302.64-11.52L302.64-11.52L302.64-11.52Q305.76-13.92 307.04-17.92L307.04-17.92L313.68-14.08L313.68-14.08Q311.04-7.04 305.60-3.08L305.60-3.08L305.60-3.08Q300.16 0.88 293.28 0.88" fill="#c5523f" stroke="none" stroke-width="none" transform="translate(-204.52001953125,22.197074127197265)" style="fill: rgb(197, 82, 63);"></path></g><g class="path" style="transform: scale(0.91); transform-origin: 127.96px 1.71708px; animation: 0.666667s linear -0.166667s infinite normal forwards running breath-ecb6a9f7-b400-4a28-b665-ecf33852474e;"><path d="M326.56 0L326.56 0Q321.84 0 318.84-3L318.84-3L318.84-3Q315.84-6 315.84-11.08L315.84-11.08L315.84-11.08Q315.84-16.16 320.48-19.88L320.48-19.88L320.48-19.88Q325.12-23.60 331.76-23.60L331.76-23.60L337.20-23.60L337.20-24.96L337.20-24.96Q337.20-28.88 335.60-30.32L335.60-30.32L335.60-30.32Q334.00-31.76 329.60-31.76L329.60-31.76L329.60-31.76Q327.76-31.76 325.24-31L325.24-31L325.24-31Q322.72-30.24 319.60-28.64L319.60-28.64L317.28-34.96L317.28-34.96Q320.72-37.36 325.64-39.28L325.64-39.28L325.64-39.28Q330.56-41.20 333.76-41.20L333.76-41.20L333.76-41.20Q346.32-41.20 346.32-29.04L346.32-29.04L346.32-13.36L346.32-13.36Q346.32-8.88 349.12-3.36L349.12-3.36L340.64 0.24L340.64 0.24Q338.64-3.60 337.68-6.64L337.68-6.64L337.68-6.64Q333.28 0 326.56 0L326.56 0zM329.92-8.16L329.92-8.16L329.92-8.16Q333.12-8.16 337.20-11.44L337.20-11.44L337.20-16.80L337.20-16.80Q332.96-17.76 330.32-17.76L330.32-17.76L330.32-17.76Q325.28-17.76 325.28-13.28L325.28-13.28L325.28-13.28Q325.28-10.96 326.56-9.56L326.56-9.56L326.56-9.56Q327.84-8.16 329.92-8.16" fill="#c5523f" stroke="none" stroke-width="none" transform="translate(-204.52001953125,22.197074127197265)" style="fill: rgb(242, 183, 54);"></path></g><g class="path" style="transform: scale(0.91); transform-origin: 161.84px -8.76292px; animation: 0.666667s linear -0.05s infinite normal forwards running breath-ecb6a9f7-b400-4a28-b665-ecf33852474e;"><path d="M379.92-61.20L377.44-52.08L377.44-52.08Q374.48-52.80 372.08-52.80L372.08-52.80L372.08-52.80Q369.68-52.80 368.60-51.36L368.60-51.36L368.60-51.36Q367.52-49.92 367.52-46.32L367.52-46.32L367.44-38.72L376.08-38.72L375.20-32.16L367.44-32.16L367.36-20.80L368.24-2L357.44 0L358.40-19.44L358.08-32.16L352.80-32.16L353.68-38.72L357.92-38.72L357.84-44.80L357.84-44.80Q357.84-51.92 362.24-56.92L362.24-56.92L362.24-56.92Q366.64-61.92 372.96-61.92L372.96-61.92L372.96-61.92Q376.32-61.92 379.92-61.20L379.92-61.20" fill="#c5523f" stroke="none" stroke-width="none" transform="translate(-204.52001953125,22.197074127197265)" style="fill: rgb(197, 82, 63);"></path></g><g class="path" style="transform: scale(0.91); transform-origin: 188.88px 2.03708px; animation: 0.666667s linear -0.0166667s infinite normal forwards running breath-ecb6a9f7-b400-4a28-b665-ecf33852474e;"><path d="M394.72-8.16L394.72-8.16L394.72-8.16Q397.04-8.16 399.60-9.36L399.60-9.36L399.60-9.36Q402.16-10.56 403.60-11.76L403.60-11.76L405.04-12.96L408.72-8.48L408.72-8.48Q407.92-7.12 406.24-5.36L406.24-5.36L406.24-5.36Q404.56-3.60 402.84-2.36L402.84-2.36L402.84-2.36Q401.12-1.12 398.28-0.12L398.28-0.12L398.28-0.12Q395.44 0.88 392.40 0.88L392.40 0.88L392.40 0.88Q385.92 0.88 381.84-4.04L381.84-4.04L381.84-4.04Q377.76-8.96 377.76-16.72L377.76-16.72L377.76-16.72Q377.76-26.48 383.44-33.84L383.44-33.84L383.44-33.84Q389.12-41.20 396.72-41.20L396.72-41.20L396.72-41.20Q402.56-41.20 405.80-37.92L405.80-37.92L405.80-37.92Q409.04-34.64 409.04-28.72L409.04-28.72L409.04-28.72Q409.04-25.20 407.84-20.72L407.84-20.72L406.24-19.04L386.24-17.20L386.24-17.20Q387.60-8.16 394.72-8.16zM394.72-32.96L394.72-32.96L394.72-32.96Q391.20-32.96 388.80-30.12L388.80-30.12L388.80-30.12Q386.40-27.28 386.00-22.88L386.00-22.88L399.60-24.56L399.60-24.56Q399.84-26.40 399.84-27.60L399.84-27.60L399.84-27.60Q399.84-32.96 394.72-32.96" fill="#c5523f" stroke="none" stroke-width="none" transform="translate(-204.52001953125,22.197074127197265)" style="fill: rgb(73, 146, 85);"></path></g></g>
</g>
</g>
<style id="breath-ecb6a9f7-b400-4a28-b665-ecf33852474e" data-anikit="">@keyframes breath-ecb6a9f7-b400-4a28-b665-ecf33852474e
{
  0% {
    animation-timing-function: cubic-bezier(0.9647,0.2413,-0.0705,0.7911);
    transform: scale(0.9099999999999999);
  }
  51% {
    animation-timing-function: cubic-bezier(0.9226,0.2631,-0.0308,0.7628);
    transform: scale(1.02994);
  }
  100% {
    transform: scale(0.9099999999999999);
  }
}</style></svg>